<svg id="Layer_1" data-name="Layer 1" xmlns="http://www.w3.org/2000/svg" xmlns:xlink="http://www.w3.org/1999/xlink" viewBox="0 0 360 262"><defs><style>.cls-1{fill:none;}.cls-2{fill:#c83737;}.cls-3{clip-path:url(#clip-path);}.cls-4{clip-path:url(#clip-path-2);}.cls-5{fill:#ededed;}.cls-6{clip-path:url(#clip-path-6);}.cls-7{opacity:0.12;}.cls-17,.cls-26,.cls-7{isolation:isolate;}.cls-8{clip-path:url(#clip-path-7);}.cls-9{clip-path:url(#clip-path-10);}.cls-10{clip-path:url(#clip-path-11);}.cls-11{clip-path:url(#clip-path-12);}.cls-12{clip-path:url(#clip-path-14);}.cls-13{clip-path:url(#clip-path-15);}.cls-14{clip-path:url(#clip-path-16);}.cls-15{fill:#d0d0d0;}.cls-16{clip-path:url(#clip-path-20);}.cls-17{opacity:0.04;}.cls-18{clip-path:url(#clip-path-21);}.cls-19{clip-path:url(#clip-path-22);}.cls-20{fill:#976844;}.cls-21{clip-path:url(#clip-path-23);}.cls-22{clip-path:url(#clip-path-24);}.cls-23{clip-path:url(#clip-path-25);}.cls-24{fill:#885d3d;}.cls-25{clip-path:url(#clip-path-26);}.cls-26{opacity:0.1;}.cls-27{clip-path:url(#clip-path-27);}.cls-28{clip-path:url(#clip-path-28);}.cls-29{fill:#b68463;}.cls-30{fill:#fff;}.cls-31{clip-path:url(#clip-path-29);}.cls-32{clip-path:url(#clip-path-30);}.cls-33{clip-path:url(#clip-path-31);}.cls-34{fill:#222;}.cls-35{fill:#333;}.cls-36{clip-path:url(#clip-path-32);}.cls-37{clip-path:url(#clip-path-33);}.cls-38{clip-path:url(#clip-path-34);}</style><clipPath id="clip-path"><path class="cls-1" d="M179.19,120.11s-56.48,19.58-56.48,70.37c0,0,10,29.52,56.47,29.52s56.49-29.52,56.49-29.52C235.67,139.69,179.19,120.11,179.19,120.11Z"/></clipPath><clipPath id="clip-path-2"><rect class="cls-1" x="4.1" y="-201.16" width="354.23" height="450.79"/></clipPath><clipPath id="clip-path-6"><rect class="cls-1" x="206.03" y="202.66" width="23.96" height="5.13"/></clipPath><clipPath id="clip-path-7"><rect class="cls-1" x="205.82" y="202.27" width="24.6" height="5.53"/></clipPath><clipPath id="clip-path-10"><rect class="cls-1" x="221.6" y="193.52" width="32.01" height="31.69"/></clipPath><clipPath id="clip-path-11"><rect class="cls-1" x="231.65" y="218.88" width="4.3" height="1.84"/></clipPath><clipPath id="clip-path-12"><rect class="cls-1" x="221.56" y="193.42" width="14.27" height="26.69"/></clipPath><clipPath id="clip-path-14"><rect class="cls-1" x="176.75" y="136.59" width="4.11" height="4.37"/></clipPath><clipPath id="clip-path-15"><rect class="cls-1" x="176.3" y="136.47" width="4.92" height="4.92"/></clipPath><clipPath id="clip-path-16"><rect class="cls-1" x="176.3" y="136.47" width="4.92" height="4.8"/></clipPath><clipPath id="clip-path-20"><rect class="cls-1" x="122.71" y="144.12" width="112.88" height="83.77"/></clipPath><clipPath id="clip-path-21"><rect class="cls-1" x="122.18" y="143.85" width="113.77" height="76.87"/></clipPath><clipPath id="clip-path-22"><rect class="cls-1" x="122.67" y="143.85" width="113.16" height="76.26"/></clipPath><clipPath id="clip-path-23"><rect class="cls-1" x="131.22" y="121.53" width="95.53" height="37.21"/></clipPath><clipPath id="clip-path-24"><rect class="cls-1" x="130.79" y="121.09" width="96.55" height="38.13"/></clipPath><clipPath id="clip-path-25"><rect class="cls-1" x="131.04" y="121.09" width="95.94" height="37.88"/></clipPath><clipPath id="clip-path-26"><rect class="cls-1" x="113.06" y="43.12" width="133.59" height="105.61"/></clipPath><clipPath id="clip-path-27"><rect class="cls-1" x="112.96" y="42.99" width="134.07" height="105.78"/></clipPath><clipPath id="clip-path-28"><rect class="cls-1" x="112.96" y="42.99" width="133.7" height="105.78"/></clipPath><clipPath id="clip-path-29"><rect class="cls-1" x="112" y="71.93" width="134.66" height="37.99"/></clipPath><clipPath id="clip-path-30"><rect class="cls-1" x="111.73" y="71.9" width="135.3" height="38.13"/></clipPath><clipPath id="clip-path-31"><rect class="cls-1" x="111.85" y="71.9" width="135.17" height="38.13"/></clipPath><clipPath id="clip-path-32"><rect class="cls-1" x="160.2" y="93.38" width="39.3" height="19.01"/></clipPath><clipPath id="clip-path-33"><rect class="cls-1" x="159.7" y="92.81" width="39.97" height="19.68"/></clipPath><clipPath id="clip-path-34"><rect class="cls-1" x="160.06" y="93.05" width="39.61" height="19.43"/></clipPath></defs><title>Artboard 1</title><path class="cls-2" d="M179.19,120.11s-56.48,19.58-56.48,70.37c0,0,10,29.52,56.47,29.52s56.49-29.52,56.49-29.52C235.67,139.69,179.19,120.11,179.19,120.11Z"/><g class="cls-3"><g class="cls-4"><path class="cls-5" d="M188.34,162v11.07h5.53v-8.7h2.37v8.7h3.16v-8.7h2.37v8.7h3.16V162Zm-8.7,2.37h3.16v5.53h-3.16ZM173.86,162v14.23h5.78v-3.16h5.53V162Zm-13.2,11.07h5.53v-8.7h2.37v8.7h3.16V162H160.66Z"/></g></g><g class="cls-3"><g class="cls-4"><path class="cls-5" d="M158.53,155.28l-13.39,6.25s-1,30.66,11.91,57.23l-37-14.63s-18.86-67.42,11.17-74,43,7.69,43,7.69Z"/></g></g><g class="cls-3"><g class="cls-6"><g class="cls-7"><g class="cls-8"><g class="cls-8"><rect x="228.28" y="204.38" width="1.71" height="1.71"/><rect x="228.28" y="202.66" width="1.71" height="1.71"/><rect x="226.58" y="206.08" width="1.71" height="1.71"/><rect x="224.86" y="206.08" width="1.71" height="1.71"/><rect x="206.03" y="204.38" width="1.71" height="1.71"/><rect x="206.03" y="202.66" width="1.71" height="1.71"/></g></g></g></g></g><g class="cls-3"><g class="cls-9"><g class="cls-7"><g class="cls-10"><g class="cls-11"><path d="M235.56,219.67a2.9,2.9,0,0,0-3.52,1.39l-.14.27c1.18.69,2.31,1.38,3.36,2.08.25-1.15.55-2.37.89-3.57l-.28-.06Z"/></g></g></g></g></g><g class="cls-3"><g class="cls-12"><g class="cls-7"><g class="cls-13"><g class="cls-14"><path d="M177.83,137l-.06.07a2.93,2.93,0,0,0-.06,3.86v0c1.08-.83,2.15-1.58,3.16-2.33q-1.39-.95-2.81-2A2.87,2.87,0,0,1,177.83,137Z"/></g></g></g></g></g><g class="cls-3"><g class="cls-4"><path class="cls-15" d="M140.31,166.07s-.14,29.86,8.79,49.55l7.91,3.16c-13-26.58-11.91-57.23-11.91-57.23Z"/></g></g><g class="cls-3"><g class="cls-16"><g class="cls-17"><g class="cls-18"><g class="cls-19"><path d="M226.09,194.1a135.68,135.68,0,0,0-10.07-50c10.7,11.07,19.56,26.27,19.56,46.4,0,23.72-26.62,37.37-26.62,37.37s17.14-12.1,17.14-33.79Zm-93.9,0a135.68,135.68,0,0,1,10.07-50c-10.68,11-19.55,26.27-19.55,46.37,0,23.72,26.62,37.37,26.62,37.37S132.2,215.79,132.2,194.1Z"/></g></g></g></g></g><path class="cls-20" d="M124.42,152s9.16,1.83,22.39,16.18c-10.13,17.4-15.39,18.4-22.87,19.55-12.06,1.86-16.14-5.35-14.11-19.46C112,153.09,124.42,152,124.42,152Z"/><g class="cls-21"><g class="cls-17"><g class="cls-22"><g class="cls-23"><path d="M178.72,121.53c-20.1,0-37.71,9.12-47.5,22.78,17.55,14.43,48.23,14.23,48.23,14.23s29.62.16,47.3-13.54C217,131,199.17,121.53,178.72,121.53Z"/></g></g></g></g><path class="cls-20" d="M213.06,40.74l-8.91,5.84,4.63,10,11.86,3.22S218.89,49.08,213.06,40.74Z"/><polygon class="cls-24" points="205.19 48.88 204.15 46.62 213.06 40.74 210.55 51.57 205.19 48.88"/><path class="cls-20" d="M146.64,40.74l8.91,5.84-4.63,10-11.86,3.22S140.82,49.08,146.64,40.74Z"/><polygon class="cls-24" points="154.5 48.88 155.55 46.62 146.64 40.74 149.16 51.57 154.5 48.88"/><path class="cls-20" d="M236.27,78.91C225.9,55.46,204.7,37,179.85,37s-46.06,18.47-56.42,41.91-10.37,51.54-10.37,51.54c18.9,25.42,66.79,25.16,66.79,25.16s47.89.26,66.79-25.16C246.64,130.45,246.63,102.35,236.27,78.91Z"/><g class="cls-25"><g class="cls-26"><g class="cls-27"><g class="cls-28"><path d="M234.85,129.69a93.15,93.15,0,0,1-15.15,19c10.33-3.72,20.39-9.49,27-18.28,0,0,0-28.09-10.37-51.54-6.76-15.29-18.14-28.47-32.13-35.79.61.39,31.63,20.24,30.69,86.57Zm-110,0a93.16,93.16,0,0,0,15.15,19c-10.33-3.72-20.39-9.49-27-18.28,0,0,0-28.09,10.37-51.54,6.76-15.29,18.14-28.47,32.13-35.79C154.94,43.51,123.92,63.36,124.87,129.69Z"/></g></g></g></g><path class="cls-29" d="M160,88.85a4.28,4.28,0,1,1-4.28-4.28A4.28,4.28,0,0,1,160,88.85Z"/><circle cx="156.57" cy="89.64" r="3.2"/><circle class="cls-30" cx="156.85" cy="88.84" r="1.04"/><circle class="cls-29" cx="204.15" cy="88.85" r="4.28"/><circle cx="203.34" cy="89.64" r="3.2"/><circle class="cls-30" cx="203.06" cy="88.84" r="1.04"/><g class="cls-31"><g class="cls-26"><g class="cls-32"><g class="cls-33"><path class="cls-30" d="M123.57,73.46S167.49,71.93,172,79.4c0,0,5,29.76-27.51,29.76S127.56,77.36,123.57,73.46Z"/><path class="cls-30" d="M235.08,74.25s-43.92-1.58-48.41,5.9c0,0-5,29.76,27.52,29.76S231.1,78.15,235.08,74.25Z"/></g></g></g></g><path class="cls-34" d="M233.87,93c-1.08,14.15-12.05,15.69-18.87,16s-23.48.79-25.57-14.44c-1.76-12.76,3-14.89,4.66-15.35,8.75-2.37,25.46-3,30.92-2.16s10.09-.17,8.86,15.89Zm-65.13-.34c-2.17,9.62-5.69,15.9-16.45,16.33s-23.59,1.7-26.31-15.43c-.7-4.44-2.84-15.65,8.39-16.45s24.51,1,28.13,2,8.84,1.95,6.23,13.49Zm72.14-18.19c-6-1.8-21.93-3-32.3-2.37-9.71.56-21.67,3.67-29.26,4.13-12.94-.4-18.49-3.56-28.2-4.13-10.37-.6-26.29.6-32.3,2.37,0,0-.3,9.49.3,18.93A8.09,8.09,0,0,1,123.33,98c1.2,3.46,1.63,14.63,18.76,14.91,18,.29,27.6-.79,30.51-19.77,0,0,1.15-7.42,6.84-6.81,5,0,6.09,6.88,6.09,6.88,3,20.18,13.57,20.38,31.58,19.77,16.26-.59,18.42-11.23,19.62-14.68a9.24,9.24,0,0,1,3.85-4.89C241.18,83.9,240.88,74.43,240.88,74.43Z"/><path class="cls-35" d="M233.87,91.06c-1.08,14.15-12.05,15.69-18.87,16s-23.48.79-25.57-14.44c-1.76-12.76,3-14.89,4.66-15.35,8.75-2.37,25.46-3,30.92-2.16S235.1,75,233.87,91Zm-65.13-.34c-2.17,9.62-5.69,15.9-16.45,16.33s-23.59,1.7-26.31-15.43c-.7-4.44-2.84-15.65,8.39-16.45s24.51,1,28.13,2,8.84,1.95,6.23,13.48Zm72.14-18.19c-6-1.8-21.93-3-32.3-2.37-9.71.56-21.67,3.67-29.26,4.13-12.94-.4-18.49-3.56-28.2-4.13-10.37-.6-26.29.6-32.3,2.37,0,0-.3,9.49.3,18.93a8.09,8.09,0,0,1,4.21,4.66c1.2,3.46,1.63,14.63,18.76,14.91,18,.29,27.6-.79,30.51-19.77,0,0,1.15-7.42,6.84-6.81,5,0,6.09,6.88,6.09,6.88,3,20.18,13.57,20.38,31.58,19.77,16.26-.59,18.42-11.23,19.62-14.68a9.24,9.24,0,0,1,3.85-4.89C241.18,82,240.88,72.53,240.88,72.53Z"/><g class="cls-36"><g class="cls-26"><g class="cls-37"><g class="cls-38"><ellipse cx="179.84" cy="102.88" rx="19.65" ry="9.5"/></g></g></g></g><ellipse cx="179.84" cy="101.04" rx="19.65" ry="9.5"/></svg>